<svg xmlns="http://www.w3.org/2000/svg" viewBox="0 0 352.7 210.15"><defs><style>.a{fill:#fff;}.b{fill:#878787;}</style></defs><title>Asset 2</title><path class="a" d="M230.11,29.29,201.7.88A1,1,0,0,0,201,.59H139.41a1,1,0,0,0-1,1V30.45a1,1,0,0,1,0,.27L126.75,71.37a1,1,0,0,0,.92,1.27l9.28.4a1,1,0,0,1,1,1v9a1,1,0,0,0,1,1h27.59a1,1,0,0,1,.71,1.71l-18,18a1,1,0,0,1-.71.29h-8.09a1,1,0,0,0-1,1v13.5a1,1,0,0,0,1,1h89a1,1,0,0,0,1-1V30A1,1,0,0,0,230.11,29.29ZM164.91,49.09a6,6,0,1,1,6-6A6,6,0,0,1,164.91,49.09Zm13.5,6h35a2.5,2.5,0,0,1,0,5h-35a2.5,2.5,0,0,1,0-5Zm35.5,29.5h-35a2.5,2.5,0,0,1,0-5h35a2.5,2.5,0,0,1,0,5Zm0-12h-35a2.5,2.5,0,0,1,0-5h35a2.5,2.5,0,0,1,0,5Z"/><polygon class="b" points="201.41 0 201.41 29.59 230.37 29.59 201.41 0"/><path class="a" d="M30.69,179.35a5.79,5.79,0,0,0-2.26-4.91q-2.26-1.71-8.12-3.61A57.48,57.48,0,0,1,11,167.08q-9.33-5-9.33-13.58a13.22,13.22,0,0,1,2.5-7.92,16.32,16.32,0,0,1,7.18-5.43,27.05,27.05,0,0,1,10.51-2,24.61,24.61,0,0,1,10.46,2.13,16.65,16.65,0,0,1,7.13,6,15.7,15.7,0,0,1,2.54,8.8H30.73a7.39,7.39,0,0,0-2.37-5.85,9.74,9.74,0,0,0-6.66-2.09,10.4,10.4,0,0,0-6.43,1.75A5.52,5.52,0,0,0,13,153.55,5.28,5.28,0,0,0,15.67,158a30.35,30.35,0,0,0,7.92,3.38q9.63,2.9,14,7.18A14.31,14.31,0,0,1,42,179.27a13.18,13.18,0,0,1-5.38,11.15q-5.38,4-14.48,4a28,28,0,0,1-11.51-2.31,18.2,18.2,0,0,1-7.92-6.34A16.23,16.23,0,0,1,0,176.49H11.32q0,9.06,10.83,9.06a10.54,10.54,0,0,0,6.28-1.64A5.32,5.32,0,0,0,30.69,179.35Z"/><path class="a" d="M69.11,143v10h7v8h-7V181.3a4.85,4.85,0,0,0,.87,3.23q.86,1,3.31,1a17.31,17.31,0,0,0,3.2-.26v8.24a22.38,22.38,0,0,1-6.58,1q-11.43,0-11.66-11.55V161H52.3v-8h5.94V143Z"/><path class="a" d="M86.46,173a24.12,24.12,0,0,1,2.33-10.79,17.06,17.06,0,0,1,6.71-7.33,19.59,19.59,0,0,1,10.17-2.6q8.24,0,13.45,5T124.94,171l.08,2.78q0,9.36-5.23,15t-14,5.66q-8.8,0-14-5.64t-5.25-15.35Zm10.87.77q0,5.8,2.18,8.87a7.84,7.84,0,0,0,12.41,0q2.22-3,2.22-9.7,0-5.69-2.22-8.81a7.21,7.21,0,0,0-6.24-3.13,7.09,7.09,0,0,0-6.17,3.11Q97.33,167.25,97.33,173.76Z"/><path class="a" d="M161.74,163.21a29.53,29.53,0,0,0-3.91-.3q-6.17,0-8.09,4.17v26.63H138.87V153h10.27l.3,4.85q3.27-5.6,9.06-5.6a11.4,11.4,0,0,1,3.39.49Z"/><path class="a" d="M190,178.33,197.52,153h11.66l-16.36,47-.9,2.14q-3.65,8-12,8a17.14,17.14,0,0,1-4.81-.71V201.2l1.66,0a9,9,0,0,0,4.61-.94,6.18,6.18,0,0,0,2.39-3.12l1.28-3.35L170.74,153h11.7Z"/><path class="a" d="M253.54,168.1H228v25.61h-4.63V139H257.3v3.91H228v21.32h25.54Z"/><path class="a" d="M272.55,141.27a3,3,0,0,1,.83-2.15,3,3,0,0,1,2.26-.88,3,3,0,0,1,2.28.88,3,3,0,0,1,.85,2.15,2.91,2.91,0,0,1-.85,2.13,3,3,0,0,1-2.28.86,2.9,2.9,0,0,1-3.08-3Zm5.3,52.45h-4.51V153h4.51Z"/><path class="a" d="M302.28,193.71h-4.51V135.94h4.51Z"/><path class="a" d="M337.43,194.47a17.66,17.66,0,0,1-9.38-2.56,17.43,17.43,0,0,1-6.53-7.13,22.22,22.22,0,0,1-2.33-10.25v-1.62a23.94,23.94,0,0,1,2.28-10.57A18.1,18.1,0,0,1,327.8,155a15.63,15.63,0,0,1,8.8-2.69q7.41,0,11.75,5.06t4.34,13.82v2.52h-29v.86a17,17,0,0,0,4,11.53,12.62,12.62,0,0,0,10,4.61,14.66,14.66,0,0,0,6.38-1.32,14.14,14.14,0,0,0,5-4.21l2.82,2.14Q346.87,194.47,337.43,194.47Zm-.83-38.36a11.25,11.25,0,0,0-8.56,3.72,17.2,17.2,0,0,0-4.23,10h24.41v-.49a14.94,14.94,0,0,0-3.35-9.55A10.37,10.37,0,0,0,336.6,156.1Z"/></svg>