<svg xmlns="http://www.w3.org/2000/svg" viewBox="0 0 103.69 119"><defs><style>.a{fill:#fff;}</style></defs><title>Asset 3</title><path class="a" d="M103.4,28.71,75,.29A1,1,0,0,0,74.28,0H12.69a1,1,0,0,0-1,1V29.86a1,1,0,0,1,0,.27L0,70.78A1,1,0,0,0,1,72.06l9.28.4a1,1,0,0,1,1,1v9a1,1,0,0,0,1,1H39.78a1,1,0,0,1,.71,1.71l-18,18a1,1,0,0,1-.71.29H13.69a1,1,0,0,0-1,1V118a1,1,0,0,0,1,1h89a1,1,0,0,0,1-1V29.41A1,1,0,0,0,103.4,28.71ZM38.19,48.5a6,6,0,1,1,6-6A6,6,0,0,1,38.19,48.5Zm13.5,6h35a2.5,2.5,0,0,1,0,5h-35a2.5,2.5,0,0,1,0-5ZM87.19,84h-35a2.5,2.5,0,0,1,0-5h35a2.5,2.5,0,0,1,0,5Zm0-12h-35a2.5,2.5,0,0,1,0-5h35a2.5,2.5,0,0,1,0,5Z"/></svg>