<svg xmlns="http://www.w3.org/2000/svg" viewBox="0 0 50 84.6"><defs><style>.a,.b{fill:#fff;}.b{stroke:#000;stroke-miterlimit:10;}</style></defs><title>mic</title><path class="a" d="M24.5,58A14.46,14.46,0,0,0,39,43.5v-29a14.5,14.5,0,0,0-29,0v29A14.46,14.46,0,0,0,24.5,58Z"/><path class="b" d="M6.5,21.1"/><path class="a" d="M25,66.6a25,25,0,0,1-25-25V27.1H3V41.6a22,22,0,0,0,44,0V27.1h3V41.6A25,25,0,0,1,25,66.6Z"/><rect class="a" x="24" y="65.1" width="3" height="19"/><rect class="a" x="9.5" y="81.6" width="30" height="3"/></svg>